<?xml version="1.0" standalone="no"?>
<!DOCTYPE svg PUBLIC "-//W3C//DTD SVG 20010904//EN"
 "http://www.w3.org/TR/2001/REC-SVG-20010904/DTD/svg10.dtd">
<svg version="1.0" xmlns="http://www.w3.org/2000/svg"
 width="142.000000pt" height="142.000000pt" viewBox="0 0 142.000000 142.000000"
 preserveAspectRatio="xMidYMid meet">
<metadata>
Created by potrace 1.11, written by Peter Selinger 2001-2013
</metadata>
<g transform="translate(0.000000,142.000000) scale(0.100000,-0.100000)"
fill="#000000" stroke="none">
<path d="M555 1350 c-6 -19 -28 -32 -105 -60 -34 -12 -38 -11 -82 20 -33 24
-53 31 -70 27 -32 -8 -168 -150 -168 -175 0 -10 15 -39 33 -63 l34 -43 -24
-54 c-12 -29 -23 -59 -23 -67 0 -9 -21 -18 -61 -26 -33 -7 -67 -18 -75 -26
-10 -11 -14 -42 -14 -123 0 -119 6 -134 60 -144 16 -3 43 -9 60 -12 19 -3 30
-12 30 -22 0 -9 11 -38 24 -64 l23 -48 -33 -49 c-19 -28 -34 -58 -34 -67 0
-25 149 -174 175 -174 12 0 39 13 61 30 39 30 72 37 90 21 5 -4 30 -16 56 -26
26 -10 46 -20 46 -24 -1 -3 1 -27 6 -53 11 -73 21 -78 142 -78 58 0 114 5 124
10 12 7 21 26 26 58 3 26 10 53 14 60 6 12 113 62 132 62 4 0 27 -13 51 -30
25 -16 53 -30 64 -30 25 0 173 150 173 175 0 11 -14 40 -30 65 -16 25 -30 50
-30 55 0 6 11 37 24 70 l25 60 54 10 c84 16 87 20 87 146 0 82 -4 111 -15 122
-12 12 -65 28 -107 31 -3 1 -10 4 -14 8 -8 8 -54 119 -54 131 0 4 14 26 30 49
17 22 30 51 30 62 0 28 -148 176 -175 176 -11 0 -42 -15 -68 -34 l-48 -34 -37
18 c-20 10 -51 24 -69 30 -18 7 -32 15 -31 19 3 29 -5 31 -151 31 -141 0 -150
-1 -156 -20z m211 -40 c7 -57 21 -72 84 -89 25 -7 66 -24 92 -37 61 -31 76
-30 124 5 37 28 40 28 59 12 48 -40 49 -47 14 -95 l-32 -45 35 -78 c20 -43 39
-93 43 -110 8 -39 14 -43 80 -58 l50 -11 3 -47 c2 -43 0 -47 -20 -48 -42 -1
-82 -10 -95 -21 -7 -6 -18 -29 -24 -52 -6 -22 -24 -67 -40 -99 -16 -32 -29
-63 -29 -69 0 -6 14 -33 31 -59 l31 -48 -32 -31 c-30 -29 -33 -30 -53 -16 -69
50 -74 50 -146 18 -36 -17 -85 -36 -107 -43 -45 -12 -56 -28 -70 -94 -9 -38
-11 -40 -51 -42 -45 -1 -46 -1 -57 68 -8 43 -29 64 -76 73 -19 3 -61 20 -92
36 -31 17 -63 30 -71 30 -8 0 -33 -14 -57 -31 l-42 -31 -34 33 -33 32 29 41
c17 22 30 48 30 57 0 9 -14 46 -30 81 -17 34 -33 78 -36 96 -8 39 -33 57 -92
67 -37 6 -42 10 -43 33 -3 61 3 69 51 75 59 7 68 16 90 85 12 37 30 81 41 98
25 42 24 71 -6 109 -34 45 -34 47 1 83 l32 31 38 -29 c49 -37 64 -37 138 0 34
16 80 34 103 40 37 9 44 15 53 48 5 20 10 44 10 53 0 24 10 29 56 29 l43 0 7
-50z"/>
<path d="M595 1017 c-65 -31 -112 -79 -143 -145 -20 -45 -23 -65 -20 -125 2
-41 12 -88 22 -109 26 -54 83 -108 144 -135 45 -21 65 -24 125 -21 84 4 135
26 188 79 56 56 80 116 80 196 0 87 -23 145 -78 200 -56 56 -105 77 -193 81
-63 2 -83 -1 -125 -21z m141 -91 c4 -11 30 -22 102 -42 6 -2 12 -14 12 -28 0
-14 5 -28 10 -31 6 -3 10 -15 10 -26 0 -10 5 -19 10 -19 15 0 12 -22 -10 -68
-11 -22 -20 -47 -20 -55 0 -19 -17 -31 -67 -47 -24 -7 -43 -17 -43 -22 0 -13
-24 -9 -68 12 -22 11 -50 20 -62 20 -11 0 -22 6 -24 13 -20 71 -31 97 -42 101
-16 6 -19 36 -4 36 12 0 41 68 38 89 -4 23 10 41 27 34 19 -7 77 16 88 34 10
17 36 17 43 -1z"/>
<path d="M664 831 c-43 -26 -53 -79 -24 -126 27 -43 67 -53 118 -28 68 33 68
124 0 159 -36 19 -57 18 -94 -5z m102 -50 c15 -30 4 -62 -25 -77 -58 -30 -109
42 -68 94 17 22 80 11 93 -17z"/>
</g>
</svg>
